<svg xmlns="http://www.w3.org/2000/svg" viewBox="0 0 29.1 35.08">
  <path d="M24.6,4.51A14.22,14.22,0,0,0,4.51,24.63l10,10,10.07-10a14.16,14.16,0,0,0,0-20Z" fill="#003b75" stroke="#ebebeb" stroke-miterlimit="10" stroke-width="0.71" fill-rule="evenodd"/>
  <path d="M10.2,9.13c1.25-3.91,2.27-3.52,3.41-5.27a2.55,2.55,0,0,1,.19,1.41c-.05.6-1,.88-.25,2,1.22-.6-.26-1,3.68-1.82-.28.66-1.1,1.31-.85,1.93.8-1,2.78-.68,3.92-1.67C20,6.86,19.11,7.34,18.51,8.14a3.3,3.3,0,0,1,2.3,0c-.68.08-1.42.17-1.31.54,2,.25,2.95,0,3.89.22a4.54,4.54,0,0,1,1.72.68,6.92,6.92,0,0,0-2.06.12c-.66.14.19.9-2.41,1,.56.31,1.16.68,1.7,1a1.68,1.68,0,0,0-1.19.68c1.56,1.7,2.46,1.62,3.4,2.47A2.19,2.19,0,0,1,25.29,16c-.71-.74-3-.4-3.89-.91.11.4.26.82.37,1.25-.31-.15-.62-.32-.94-.49.4,1.56.51,4.14,1.2,4.68-.83.77-2.13-2.44-2.81-2.38-.11.62.28,1.39-.31,1.9a1.45,1.45,0,0,0-.48-.82c.05,2.07-1.28,2.35-1,5.16-2.29-.6-1.53-3.12-1-4.2a7.12,7.12,0,0,0-2,1.5A3.4,3.4,0,0,1,14.94,20c-1.08-.17-2.67,1.84-3.83,2.24a3.68,3.68,0,0,1-2.75,0c2-.36,2.41-2.21,3.77-2.8.2-.51-1.78.45-2.61.45A3.52,3.52,0,0,1,8,19.56c1.31,0,1.53-.91,2.3-1.33-1.19-.91-5.73,1-6.69-2.24a3.71,3.71,0,0,0,2,.48c.85-.14,1.7-1,2.47-.68-.37-1-3.06-.65-3-1.93a.54.54,0,0,0,.46.11c.62-.11,1.58-.51,2.26.2-.17-1.61-2.63-3.37-.39-6,0,1.89.05,1.87,1.1,2.32C8.39,8.65,9.81,6.41,9,5.75c2,.54.8,2.27,1.19,3.38Z" fill="#fefefe" fill-rule="evenodd"/>
</svg>
