<svg xmlns="http://www.w3.org/2000/svg" viewBox="0 0 29.1 35.08">
  <path d="M24.6,4.51A14.22,14.22,0,0,0,4.51,24.63l10,10,10.07-10a14.16,14.16,0,0,0,0-20Z" fill="#e31e24" stroke="#ebebeb" stroke-miterlimit="10" stroke-width="0.71" fill-rule="evenodd"/>
  <path d="M10.2,9.41c1.25-3.91,2.27-3.51,3.41-5.27a2.57,2.57,0,0,1,.19,1.42c-.05.59-1,.87-.25,2,1.22-.59-.26-1,3.68-1.81-.28.65-1.1,1.3-.85,1.93.8-1,2.78-.69,3.92-1.68C20,7.11,19.11,7.63,18.51,8.42a3.36,3.36,0,0,1,2.3,0c-.68.09-1.42.14-1.31.54,2,.23,2.95,0,3.89.23a4,4,0,0,1,1.72.68,7.34,7.34,0,0,0-2.06.11c-.66.14.19.91-2.41,1,.56.32,1.16.68,1.7,1a1.73,1.73,0,0,0-1.19.65c1.56,1.73,2.46,1.64,3.4,2.49a2.22,2.22,0,0,1,.74,1.28c-.71-.77-3-.4-3.89-.94.11.43.26.85.37,1.28-.31-.17-.62-.31-.94-.48.4,1.56.51,4.14,1.2,4.67-.83.77-2.13-2.43-2.81-2.38-.11.63.28,1.39-.31,1.9a1.48,1.48,0,0,0-.48-.82c.05,2.07-1.28,2.35-1,5.13-2.29-.57-1.53-3.12-1-4.19a6.88,6.88,0,0,0-2,1.53,3.13,3.13,0,0,1,.54-1.76c-1.08-.2-2.67,1.84-3.83,2.24a3.68,3.68,0,0,1-2.75,0c2-.4,2.41-2.21,3.77-2.81.2-.51-1.78.45-2.61.45A3.52,3.52,0,0,1,8,19.84c1.31,0,1.53-.9,2.3-1.33-1.19-.91-5.73,1-6.69-2.24a3.63,3.63,0,0,0,2,.48c.85-.14,1.7-1.05,2.47-.68-.37-1-3.06-.65-3-1.93a.54.54,0,0,0,.46.12c.62-.12,1.58-.51,2.26.2-.17-1.62-2.63-3.38-.36-6-.06,1.9,0,1.87,1.07,2.32C8.39,8.9,9.81,6.69,9,6c2,.54.8,2.24,1.19,3.37Z" fill="#fefefe" fill-rule="evenodd"/>
</svg>
